<svg width="202" height="200" xmlns="http://www.w3.org/2000/svg"><g fill="none"><path d="M201.513 198.505H73.317c.108-.215.19-.386.278-.556.835-1.628 1.67-3.255 2.507-4.882.058-.115.135-.22.197-.333.49-.892 1.1-1.74 1.444-2.685.633-1.73 1.608-3.21 3.018-4.35 2.79-2.26 4.196-5.267 4.856-8.676.975-5.044 1.954-10.09 2.802-15.156.653-3.905 1.08-7.848 1.658-11.766.306-2.074.674-4.14 1.11-6.19.312-1.477 1.05-2.013 2.546-2.208.243-.032.515-.243.67-.447.35-.46.654-.954.94-1.455 1.105-1.935 2.856-3.11 4.78-4.085 2.04-1.032 4.104-2.016 6.114-3.1 1.512-.816 1.66-1.298.775-2.76-1.388-2.286-2.785-4.58-4.353-6.745-4.405-6.083-7.797-12.697-10.5-19.67-.895-2.303-2.317-4.21-3.84-6.094-3.89-4.812-6.523-10.207-7.36-16.376-.39-2.855-1.052-5.767-.34-8.61.84-3.365.067-6.632-.145-9.93-.313-4.872-.88-9.726-1.16-14.598-.28-4.824 1.014-9.374 3.134-13.66 1.51-3.05 2.985-6.182 4.98-8.91 2.81-3.84 5.733-7.656 9.635-10.56 1.126-.838 2.106-1.9 3.04-2.96 1.293-1.465 2.845-2.565 4.494-3.56 2.515-1.52 4.92-3.205 7.61-4.452 4.318-2 8.862-2.746 13.562-2.828 6.256-.11 12.47.43 18.664 1.227 4.644.598 9.284 1.227 13.918 1.894 4.778.688 9.382 2.083 13.958 3.57 1.597.52 3.186 1.07 4.797 1.54 3.866 1.133 5.98 3.906 6.684 7.638.686 3.627.836 7.338.288 11.03-.158 1.064-.392 2.116-.526 3.182-.034.274.088.693.29.855 5.91 4.696 9.35 11.07 12.083 17.875 1.276 3.18 1.49 6.573 1.3 9.995-.26 4.72-.616 9.425-1.583 14.067-1.592 7.637-4.735 14.53-9.816 20.51-.78.92-1.556 1.866-2.184 2.89-1.56 2.545-3.886 3.816-6.742 4.32-1.936.344-2.505 1.143-2.9 3.073-.828 4.027-1.794 8.025-2.72 12.03-.442 1.915-.86 3.838-1.4 5.727-.85 2.98-2.23 5.71-4.13 8.17-.16.208-.315.422-.458.642-.993 1.53-.81 2.156.92 2.714 1.774.57 3.594 1.002 5.36 1.59 1.014.337 2.01.788 2.93 1.327 1.103.648 1.604 1.736 1.567 2.997-.043 1.508.304 2.91.922 4.265 3.263 7.157 5.677 14.59 7.51 22.234 1.263 5.27 3.34 10.265 5.875 15.053.94 1.774 1.935 3.59 3.252 5.084 2.902 3.292 4.887 7.153 7.2 10.812.232.37.41.773.68 1.29zM89.953 88.89c-.124.04-.25.085-.375.127-.424-.447-.974-.828-1.252-1.353-1.28-2.43-1.793-4.97-.776-7.645.845-2.225.296-3.414-1.95-4.192-.84-.29-1.11-.823-.85-1.682.24-.79.852-1.183 1.587-1.394.692-.2 1.242.11 1.653.648.364.48.663 1.008 1.03 1.485.127.164.37.24.56.357.108-.182.294-.36.31-.548.03-.387.036-.798-.064-1.167a302.846 302.846 0 0 0-2.14-7.546c-.068-.228-.542-.504-.802-.48-1.356.125-2.1 1.103-1.928 2.458.07.544.215 1.08.318 1.62.256 1.334-.158 2.098-1.465 2.435-.546.14-.65.432-.682.877-.096 1.288.183 2.494.747 3.653.168.345.277.736.324 1.116.322 2.605.78 5.17 1.683 7.658 1.1 3.03 3.374 5.234 5.33 7.65.702.867 1.803 1.405 2.686 2.137.362.3.796.667.915 1.084 1.772 6.22 4.76 11.855 8.224 17.27a4613.36 4613.36 0 0 1 12.084 19.01c2.31 3.654 5.514 6.138 9.706 7.19 5.488 1.378 11.06 2.076 16.736 1.51 7.506-.747 13.172-4.27 16.837-10.937a29.425 29.425 0 0 1 3.16-4.6c1.766-2.128 3.007-4.473 3.666-7.142 1.042-4.22 2.07-8.446 3.137-12.662.78-3.096 1.378-6.246 2.688-9.19.637-1.433 1.107-1.58 2.642-1.283 1.244.24 2.576.427 3.81.24 2.315-.35 3.532-2.124 4.427-4.1 1.504-3.323 2.235-6.86 2.922-10.422.716-3.714.516-7.3-.998-10.79-.258-.594-.518-1.178-1.263-1.26-.72-.082-1.198.328-1.558.882-.858 1.32-1.764 2.615-2.526 3.99-.53.954-.853 2.022-1.268 3.04-.253.62-.677 1.023-1.384.926-.773-.103-1.1-.642-1.168-1.37a2.444 2.444 0 0 1-.005-.392c.243-3.457-.497-6.76-1.842-9.893-2.152-5.015-3.356-10.232-4.016-15.627-.737-6.013-1.677-12.002-2.487-18.007-.136-1.002-.584-1.68-1.413-2.222-7.634-5.002-15.82-8.585-24.95-9.82-2.37-.32-4.618-.245-6.84.844-2.235 1.097-4.586 1.96-6.888 2.923-6.182 2.59-12.32 5.26-18.11 8.67-4.303 2.537-7.764 5.816-9.937 10.365-.93 1.948-1.623 3.922-1.346 6.133.06.483-.004 1-.11 1.48-.604 2.71-1.253 5.41-1.857 8.12-.725 3.252-1.313 6.522-1.555 9.857-.187 2.587-.602 5.158-.847 7.742-.083.87-.487 1.108-1.27 1.1-.218-.003-.564.198-.635.387-.448 1.193-.794 2.426-1.255 3.615-.52 1.34-.626 2.627.067 3.946a6.17 6.17 0 0 1 .594 1.7c.087.475-.017.985-.036 1.48zm29.888 53.583c-.036.054-.072.11-.108.162.51.516.94 1.166 1.542 1.525 2.522 1.5 5.096 2.916 7.653 4.36.066.037.152.037.228.057.53.142.875-.023.982-.587.083-.437.162-.876.258-1.31.32-1.455-.044-1.952-1.52-2.202a74.319 74.319 0 0 1-3.865-.762c-1.73-.39-3.447-.826-5.17-1.243zm26.167 1.143c-3.09 1.07-6.042 1.636-9.107 1.486-.657-.03-1.034.393-1.103 1.01a4.36 4.36 0 0 0 .07 1.328c.162.812.504 1.018 1.297.79 1.236-.357 2.476-.708 3.688-1.136 1.936-.683 3.667-1.698 5.155-3.478zm-12.11 3.906c-.062-.473-.1-.998-.21-1.506-.135-.605-.737-.987-1.313-.87-.667.134-.66.64-.614 1.16.042.47.047.943.117 1.407.12.797.57 1.22 1.223 1.163.842-.077.708-.757.798-1.354zm-105.4-97.769c-.987.425-.97.51-.684 2.12a33.03 33.03 0 0 1 .448 3.78c.205 3.32.425 6.628.896 9.93.393 2.753.138 5.54-1.51 7.97-.155.23-.56.41-.85.413-.73.01-1.457-.1-2.185-.148-1.6-.107-1.904-.877-2.113-2.058a148.817 148.817 0 0 1-1.11-7.523c-.188-1.496-.212-3.012-.345-4.516-.182-2.042-.4-4.083-.6-6.124-.12-1.22-.227-2.438-.345-3.657-.055-.568-.12-1.132-.196-1.86-.174.275-.286.425-.37.588-1.05 2.034-2.018 4.118-3.173 6.09-.73 1.247-1.727 2.34-2.627 3.483-.692.88-1.388 1.762-2.14 2.588-1.646 1.805-3.567 3.203-6.032 3.648-.417.076-.915-.11-1.336-.277-.5-.198-.725-.606-.433-1.13.92-1.653 1.763-3.355 2.798-4.93 1.57-2.387 3.276-4.68 4.917-7.02.133-.19.207-.418.367-.75-.79-.178-1.553-.354-2.317-.522-2.136-.472-3.12-1.59-3.363-3.526a19.214 19.214 0 0 1 .47-7.265c.533-2.062 1.714-3.63 3.645-4.62 1.994-1.024 4.058-1.946 5.93-3.162 2.63-1.71 4.08-4.235 4.004-7.43-.075-3.128-.348-6.253-.436-9.38-.053-1.856.075-3.715.144-5.572.04-1.065.674-1.51 1.59-1.123.17.07.362.277.396.45.86 4.386 1.704 8.777 2.546 13.168.166.863.33 1.726.477 2.593a1.298 1.298 0 0 0 1.937.946c1.35-.784 2.787-1.44 4.065-2.325.692-.478 1.23-1.266 1.665-2.013.724-1.24 1.894-1.834 3.11-2.354 3.89-1.663 7.798-3.286 11.705-4.91a646.456 646.456 0 0 1 8.863-3.637c.98-.39 2-.7 3.025-.955 1.714-.428 3.07.645 3.44 2.332.393 1.782-.3 3.217-1.254 4.568-2.402 3.394-4.86 6.748-7.278 10.13-.27.376-.457.817-.646 1.243-.295.663.008 1.058.628 1.304 1.277.507 2.584.954 3.815 1.557 1.744.854 2.774 2.477 3.915 3.952a104 104 0 0 1 3.326 4.522c1.42 2.06 1.205 4.474-.344 6.33-.424.51-1.525.668-2.022.23-1.832-1.62-3.908-2.992-5.297-5.07-.243-.364-.444-.756-.66-1.13-1.077.317-1.333.876-1.147 2.093.204 1.332.313 2.678.467 4.016.2 1.752.418 3.5.606 5.253.133 1.24.237 2.483.34 3.727.214 2.592.474 5.18.613 7.776.12 2.248.563 4.527-.298 6.736-.43 1.1-.906 2.145-2.236 2.448-.755.17-1.65-.126-2.098-.77-1.356-1.946-2.013-4.097-2.12-6.473-.093-2.08-.377-4.15-.58-6.224-.167-1.71-.328-3.423-.506-5.133-.197-1.883-.43-3.763-.61-5.647-.14-1.477-.29-2.957-.322-4.44-.054-2.406-.015-4.815-.015-7.223l-.275-.1c-.233.21-.492.4-.696.636-2.253 2.604-4.53 5.188-6.733 7.833-1.096 1.316-2.546 2.113-3.935 3.017-.086.056-.16.128-.332.265.717.707 1.454 1.358 2.1 2.09 1.102 1.25 2.2 2.512 3.202 3.84.956 1.27.91 3.715-.708 4.793-1.117.746-2.247.594-3.297-.018-1.64-.955-3.226-2-4.815-3.037-1.11-.726-2.245-1.433-3.26-2.28-.683-.57-1.174-1.37-1.797-2.122zm20.27-30.533c-.256.078-.377.11-.494.15-1.66.57-3.3 1.213-4.99 1.69-1.154.326-1.735.832-1.717 2 .01.623.085 1.244.148 1.864.13 1.26-.668 2.683-2.19 3.383-2.33 1.073-4.722 2.014-7.078 3.035-1.643.712-3.32 1.37-4.886 2.227-1.508.827-1.537 1.916-.377 3.155 1.122 1.2 2.167 2.47 3.26 3.694 1.023 1.143 2.066 2.266 3.17 3.478.517-1.19.9-2.353 1.495-3.396 1.837-3.22 3.655-6.462 5.67-9.574 2.34-3.618 4.883-7.107 7.333-10.654.214-.307.398-.633.658-1.054zm-34.48 26.266c1.214-1.78 2.198-3.492 2.143-5.687-2.088 1.376-2.707 3.22-2.143 5.686z" fill="#000"/><path d="M22.31 121.657c-1.902-2.015-1.898-4.4-1.262-6.96.227-.913.125-1.916.115-2.877-.02-1.83-.152-3.663-.114-5.49.08-3.834.195-7.667.388-11.495.146-2.882.452-5.756.65-8.636.05-.755.102-1.557-.096-2.27-.307-1.11.06-2.008.603-2.882a9.544 9.544 0 0 1 1.252-1.613c1.125-1.16 2.465-1.357 3.87-.548.676.39 1.272.916 1.96 1.423 1.272-1.13 2.572-2.312 3.9-3.462 1.747-1.51 3.5-2.984 5.554-4.122 1.948-1.078 3.702-2.5 5.552-3.754 1.183-.803 2.46-1.217 3.877-.69 1.344.498 2.13 1.476 2.104 2.92-.032 1.73-.226 3.455-.283 5.185-.172 5.258.155 10.5.56 15.74.257 3.296.423 6.6.595 9.903.102 1.95.352 2.09 2.046 1.11 3.845-2.228 7.682-4.47 11.57-6.62.838-.466 1.862-.728 2.824-.808 1.243-.102 2.18.717 2.583 1.916.407 1.21.117 2.32-.874 3.11-.45.357-.952.655-1.454.94a3911.574 3911.574 0 0 1-13.935 7.88c-1.243.7-2.17 1.578-2.534 3.038-.314 1.265-1.436 1.784-2.646 1.312-1.09-.424-2.082-.243-3.01.344a918.869 918.869 0 0 0-8.9 5.694c-1.148.742-2.248 1.558-3.388 2.31-.61.404-.86.938-.66 1.618.922 3.174.518 6.346.03 9.52-.44 2.85-.862 5.704-1.334 8.55-.386 2.332-1.65 3.703-3.674 4.092-3.01.578-5.195-1.085-5.112-4.14.053-1.925.47-3.847.815-5.754.58-3.21 1.598-6.28 3.077-9.28-1.22.79-2.484 1.518-3.653 2.374-3.737 2.734-7.43 5.527-11.16 8.267-1.1.81-2.285 1.505-3.41 2.28-1.82 1.25-3.893 1.937-5.927 2.706-1.06.4-1.745.198-2.246-.533-.547-.798-.535-1.782.198-2.525.884-.895 1.902-1.657 2.81-2.53 3.74-3.588 7.453-7.214 11.62-10.314 2.297-1.707 4.705-3.265 7.122-4.93zm23.264-22.065L44.46 75.344l-1.23.807c-3.06 2.014-5.64 4.537-7.855 7.432-.198.26-.237.83-.082 1.105.134.235.647.305 1.003.346.207.024.43-.196.657-.237 1.28-.236 2.557-.52 3.85-.65.854-.084 1.5.396 1.83 1.227.33.826.03 1.487-.544 2.064-.24.24-.51.458-.792.65-3.59 2.435-7.183 4.868-10.783 7.29a3.297 3.297 0 0 1-.92.416c-.48.14-.964.24-.766.92.18.623.6.653 1.176.547 1.9-.35 3.564-1.232 5.202-2.193 1.547-.907 3.15-1.69 4.938-2.008 1.088-.196 1.89.26 2.456 1.18.516.84.467 1.677-.188 2.558-.52.7-1.112 1.275-1.99 1.586-.91.322-1.764.81-2.626 1.258-2.63 1.37-5.197 2.89-8.21 3.325-.63.092-.888.557-.845 1.14.032.44.155.88.294 1.3.17.516.498.586.984.32 3.823-2.102 7.65-4.193 11.49-6.266.278-.15.65-.222.967-.2.995.073 1.985.208 3.097.332zm-.098 3.073c-1.575 1.015-3.157 1.998-4.702 3.035-3.204 2.152-6.303 4.473-9.923 5.937-1.624.658-2.15 2.29-1.263 3.82.36.62.677.672 1.26.207.472-.374.91-.804 1.427-1.103 3.86-2.242 7.74-4.456 11.61-6.685 2.108-1.215 2.683-3.014 1.592-5.21zM18.58 173.21c.005-2.195.025-4.39.01-6.585-.018-3.04-.21-6.092.967-9.014-.052-.074-.105-.15-.158-.223-.396.144-.827.23-1.18.444-1.124.678-2.142.606-3.01-.274-.806-.818-.923-1.71-.09-2.495 1.024-.965 2.132-1.882 3.327-2.62 2.405-1.486 5.148-2.083 7.88-2.653.82-.17 1.66-.36 2.49-.36 1.717-.004 2.633 1.123 2.013 2.697-.9 2.283-.454 4.356.468 6.463.692 1.582 1.315 3.194 1.985 4.786.07.17.25.293.38.438.124-.118.298-.214.364-.36.754-1.64 2.147-2.446 3.787-2.96a385.012 385.012 0 0 0 5.014-1.62c.858-.282 1.73-.1 2.258.644.37.523.723 1.134.837 1.75.726 3.917 1.42 7.84 2.05 11.77.372 2.33.624 4.682.892 7.027.08.7.127 1.43.023 2.12-.267 1.765-1.553 2.473-3.14 2.884-1.518.392-3.046.788-4.504 1.352-1.65.638-3.327.533-4.985.355-1.543-.165-2.337-1.865-1.604-3.253.374-.708.94-1.316 1.445-2.007-2.032-.8-2.528-2.473-2.484-4.452.02-.916.036-1.835-.007-2.75-.054-1.13-.638-1.597-1.763-1.48-.26.03-.518.106-.78.12-.866.044-1.35-.342-1.43-1.207-.063-.675.075-1.387-.082-2.033-.34-1.393-.78-2.764-1.242-4.123a37.786 37.786 0 0 0-1.325-3.36c-.164-.36-.527-.675-.872-.9-.318-.21-.746-.243-1.103-.402-.587-.263-1.14 0-1.228.637-.035.256-.034.532.023.783.76 3.404.848 6.873.935 10.33.112 4.49.11 8.983.13 13.474.008 2.495.033 4.994-.096 7.483-.056 1.07-.4 2.155-.776 3.173-.355.963-1.19 1.417-2.246 1.44-1.078.022-1.985-.387-2.386-1.356-.444-1.073-.858-2.234-.912-3.374-.134-2.806-.056-5.62-.063-8.432v-1.04c-.618.582-1.086 1.02-1.552 1.463-2.173 2.064-4.34 4.137-6.523 6.193-1.042.982-2.16 1.864-3.72 1.24-1.67-.67-2.612-1.99-2.728-3.738-.155-2.33-.183-4.67-.174-7.007.014-3.49-.034-6.99.216-10.468.183-2.548.72-5.083 1.27-7.587.19-.866.793-1.705 1.39-2.4.6-.7 1.207-.6 1.904.027 1.1.99 1.83.967 2.952-.033.705-.627 1.41-1.27 2.197-1.784.943-.617 1.788-.357 2.12.724.414 1.346.656 2.748.918 4.135.51 2.705.98 5.418 1.472 8.126.018.098.08.185.12.277.11 0 .218 0 .326.002zm-8.63 9.344c.952-.81 1.856-1.565 2.746-2.336.697-.604 1.023-1.363.983-2.3-.186-4.425-.355-8.853-.534-13.28-.02-.497-.026-1-.107-1.488-.048-.288-.166-.683-.376-.79-.192-.098-.583.07-.826.218-.426.257-.797.6-1.207.886-1.076.747-1.573 1.735-1.562 3.07.043 4.96.044 9.92.022 14.882-.003.692.16 1.098.86 1.137zm29.52-8.257h.018c0 .63-.03 1.26.005 1.89.096 1.675.107 1.675 1.724 1.314.954-.214 1.104-.495.937-1.436a22.559 22.559 0 0 1-.314-2.642c-.088-1.568-.032-3.148-.187-4.707-.18-1.793-.674-3.554-.335-5.388.038-.206-.344-.674-.58-.713-1.225-.2-1.993.7-1.75 1.902.194.973.432 1.956.462 2.94.068 2.278.022 4.558.022 6.838z" fill="#000"/><path d="M49.92 150.912c-2.648 1.21-5.16 2.41-7.718 3.504-1.785.763-3.624 1.408-5.46 2.045-.743.258-1.6.647-2.22-.246-.648-.928-.57-2.393.146-3.165.282-.304.622-.57.975-.79 4.968-3.1 10.417-5.09 15.968-6.835 1.112-.35 2.044.056 2.504.952.417.812.242 1.603-.692 2.34-.842.664-.792 1.487-.618 2.35 1.034 5.14 2.078 10.274 3.134 15.407.937 4.554 1.616 9.137 1.895 13.783.193 3.22.615 6.43.812 9.65.14 2.3.15 4.612.085 6.916-.05 1.812-1.03 2.776-2.802 3.062-1.728.28-3.107-.35-3.653-2.014-.534-1.628-.937-3.346-1.08-5.052-.467-5.49-.76-10.995-1.173-16.49-.335-4.45-.75-8.89-1.123-13.336-.327-3.877-.042-7.706.91-11.482.038-.148.057-.3.11-.598m25.747 2.324c0 3.046.045 6.094-.018 9.14-.035 1.68-.31 3.34-1.062 4.882-.654 1.342-1.743 1.977-3.225 1.984-1.51.007-2.757-.568-3.273-1.997a17.568 17.568 0 0 1-.926-4.112c-.498-4.72.095-9.374 1.158-13.972.442-1.913.956-3.81 1.51-5.694a6.495 6.495 0 0 1 .937-1.883c.666-.938 1.67-1.14 2.75-.91 1.086.23 1.74.948 1.968 2.016.114.534.168 1.09.17 1.638.018 2.97.01 5.94.01 8.907M64.19 136.204c-.143.74-.21 1.484-.43 2.177-.57 1.8-2.452 2.21-3.694.793-4.006-4.566-6.64-9.856-8.21-15.69-.264-.983.09-1.828.875-2.335.783-.505 1.578-.455 2.215.223 3.87 4.12 6.964 8.74 9.054 14.004.1.26.127.55.19.83m3.458 46.098c-.436-.055-.83-.084-1.213-.158-.785-.153-1.244-.697-1.19-1.44.088-1.19.175-2.42.55-3.54.676-2.005 2.606-2.94 4.68-2.51 1.064.222 1.713.86 2.03 1.866.798 2.552-.62 4.988-3.257 5.566-.535.118-1.09.15-1.6.216M131.85 98.59c2.73.062 5.497.337 8.18 1.187 2.29.725 4.447 1.7 5.93 3.68 2.08 2.772 2.204 5.875 1.06 8.984-1.973 5.375-6.064 8.49-11.448 10.034-3.57 1.024-6.882.132-9.995-1.648-4.278-2.446-7.118-6.07-8.612-10.75-.502-1.57-.993-3.147-1.476-4.725-.347-1.13-.164-1.87.823-2.447 4.773-2.784 9.79-4.75 15.537-4.313zm-6.43 12.512c-.89.22-1.798.378-2.66.674-.91.314-.98.758-.287 1.422.892.855 1.774 1.728 2.73 2.507 2.627 2.14 5.36 3.84 9.047 2.82 2.55-.71 4.967-1.55 6.832-3.524.86-.908.823-1.37-.174-2.094-2.267-1.647-5.533-1.73-8.04-.2-1.65 1.002-2.358.965-3.847-.234-1.044-.84-2.228-1.266-3.6-1.37zm9.024-6.623c1.846.015 2.633-.816 2.594-2.737-.018-.885-.37-1.207-1.26-1.23a87.284 87.284 0 0 1-3.35-.155c-.77-.05-1.062.156-1.154.92-.242 2.033.896 3.183 3.17 3.2zm-6.876-.358c.988-.012 1.297-.393 1.156-1.387-.055-.387-.06-.782-.086-1.173-.078-1.178-.59-1.494-1.732-1.127-.38.123-.816.213-1.202.157-1.278-.186-1.724.263-1.41 1.508.33 1.293 1.54 2.04 3.274 2.022z" fill="#000"/><path d="M142.3 79.363c3.7 3.53 7.506 6.778 10.063 11.125 2.82 4.798 4.456 9.993 4.938 15.537.835 9.586-1.56 18.424-6.394 26.64-.888 1.51-2.2 2.795-3.437 4.066-.39.4-1.187.602-1.778.567-.947-.058-1.307-1.088-.656-1.7 2.185-2.058 3.543-4.68 4.944-7.253 3.884-7.133 5.204-14.81 4.408-22.828-.675-6.784-3.128-12.89-7.48-18.22-1.507-1.85-2.808-3.867-4.192-5.815-.417-.587-.655-1.23-.417-2.117m-17.734-4.943c.295 2.027-.013 3.877-.565 5.688-.274.9-.633 1.78-1.04 2.63-.366.756-.73.734-1.243.08-.214-.274-.526-.47-.795-.7-.215.274-.458.532-.642.826-1.203 1.94-2.38 3.895-3.59 5.83-1.923 3.068-3.93 6.088-5.107 9.555-2.212 6.517-1.747 12.916 1.195 19.052 2.222 4.63 4.74 9.124 7.712 13.34.315.446.73.824 1.113 1.223.336.353.574.745.212 1.18-.368.44-.886.407-1.273.07-.906-.792-1.908-1.534-2.607-2.488-5.197-7.1-8.39-15.078-10.338-23.614-.755-3.308-.118-6.328 1.247-9.31 2.57-5.622 5.69-10.938 9-16.147.544-.86 1.117-1.728 1.822-2.454.447-.46 1.134-.854 1.76-.94 1.025-.142 1.45-.694 1.7-1.578.234-.83.493-1.66 1.44-2.242m32.562-29.09c1.116.165 2.022.615 2.64 1.44.622.832 1.076 1.787 1.615 2.682.615 1.017 1.2 2.055 1.877 3.03.476.685.553 1.107.048 1.495-.503.387-.884.254-1.436-.427-.64-.79-1.227-1.65-1.988-2.306-1.458-1.26-3.153-1.524-4.92-.658-.798.39-1.54.893-2.293 1.37-3.437 2.18-6.868 4.37-10.304 6.554-.176.11-.37.198-.566.276-.866.35-1.54.18-2.028-.5-.41-.57-.38-1.312.252-1.925 1.204-1.17 2.436-2.322 3.736-3.384a50.304 50.304 0 0 1 11.075-6.9c.728-.33 1.527-.502 2.293-.747m-7.952 12.677c.86.306 1.788.533 2.62.952 4.507 2.273 8.536 5.172 11.712 9.148.903 1.13.996 1.975.29 2.742-.763.83-1.558.893-2.39.084-.848-.824-1.62-1.724-2.437-2.58-2.356-2.464-4.967-4.608-7.977-6.244-2.37-1.29-3.273-1.084-4.786 1.172-.627.934-1.14 1.944-1.714 2.915-.213.358-.38.817-.702 1.023-.378.244-.93.41-1.354.328-.282-.052-.625-.575-.667-.92-.07-.578-.038-1.224.156-1.77 1-2.81 2.86-4.92 5.514-6.3.5-.26 1.087-.352 1.733-.55m-44.271-8.168c1.207-1.496 2.342-3.08 4.147-3.956 1.33-.646 2.655-.287 3.873.325 3.12 1.568 6.234 3.153 9.293 4.836 1.21.666 2.29 1.58 3.383 2.44.878.693 1.03 1.496.578 2.36-.51.98-1.265 1.318-2.358 1.042a3.502 3.502 0 0 1-.738-.268c-4.088-2.07-8.098-4.263-11.518-7.373a6.185 6.185 0 0 0-.89-.65c-1.38-.86-2.408-.707-3.652.356-.564.482-1.29.776-1.942 1.156a17.72 17.72 0 0 0-.176-.268m10.996 8.92c5.1-.006 8.24 2.38 9.362 6.628.27 1.028-.056 1.838-.843 2.086-.753.236-1.362-.046-1.66-.77-.03-.072-.068-.144-.083-.22-.673-3.374-2.844-4.81-6.325-4.72-1.412.038-2.843.145-4.224.424-2.497.505-4.383 1.947-5.69 4.138-.23.385-.5.758-1.073.538-.55-.212-.66-.63-.594-1.142.028-.207.084-.41.147-.61.557-1.783 1.64-3.17 3.268-4.08 2.59-1.443 5.39-2.175 7.716-2.272" fill="#000"/><path d="M122.274 89.268c.19-.31.356-.64.575-.93.785-1.033 1.556-1.29 2.835-.93a5.565 5.565 0 0 1 2.963 1.98c.436.56.885 1.116 1.393 1.607.858.83 1.764.896 2.693.15.652-.524 1.224-1.153 1.79-1.775 1.07-1.178 2.366-1.6 3.918-1.248 1.07.24 1.715 1.198 1.564 2.31-.12.884-.786 1.45-1.925 1.295-1.7-.235-3.157.298-4.6 1.045-1.24.64-2.432.834-3.82.188-1.558-.726-3.238-1.218-4.9-1.688-.566-.16-1.24.05-1.862.104-.154.014-.303.115-.456.12-1.276.038-1.912-.86-2.483-1.778-.686-1.103-.74-2.194-.127-2.78.25-.238.7-.39 1.042-.36.195.018.417.457.51.745.184.56.283 1.144.418 1.718l.47.228m55.054-5.719c.48-1.57.937-3.148 1.45-4.706.263-.794.598-1.568.955-2.325.687-1.453 2.076-1.593 3.027-.283.276.382.435.9.497 1.374.137 1.064-.06 1.262-1.14 1.208-.684-.036-1.08.275-1.345.86-.645 1.418-.41 2.592.746 3.653 1.218 1.118 1.53 3.94.592 5.335-.455.678-1.232.805-1.69.148-.987-1.414-1.883-2.89-2.785-4.362-.14-.225-.11-.554-.157-.835l-.15-.065m-33.603-11.794c1.148 1.33 2.164 2.76 3.433 3.917 2.085 1.9 4.598 3.025 7.482 2.707 2.607-.288 4.19-2.12 5.502-4.2.26-.413.375-.984 1.07-.778.7.207 1.046.734.83 1.38-.254.752-.567 1.577-1.105 2.125-2.766 2.813-6.145 4.004-9.99 2.893-3.94-1.14-6.475-3.78-7.244-7.914-.008-.05.017-.103.023-.132" fill="#000"/><path d="M155.143 74.496c-3.42-.25-6.477-1.285-9.342-2.92-.52-.298-1.045-.614-1.498-1.004-.578-.5-.615-1.12-.208-1.682.36-.498.74-.55 1.27-.185.658.455 1.345.913 2.085 1.195 1.883.716 3.778 1.42 5.714 1.966 1.646.463 3.287.13 4.835-.582.582-.268 1.172-.457 1.63.16.443.6.196 1.204-.275 1.613-.517.45-1.117.896-1.757 1.094-.816.252-1.71.252-2.455.346M117.48 73.07c-2.86.14-5.52-.395-7.772-2.262-.34-.282-.708-.703-.774-1.106-.123-.76.726-1.324 1.53-1.053.77.258 1.5.623 2.26.917 2.785 1.074 5.49 1.05 8.1-.556.668-.41 1.34-.285 1.768.244.47.577.455 1.253-.13 1.842-1.37 1.377-3.08 1.95-4.982 1.975m15.98 54.939c-3.25-.015-6.062-.564-8.338-2.706-.19-.18-.45-.356-.514-.58-.094-.337-.188-.84-.014-1.038.178-.2.72-.238 1.03-.132.51.177.952.546 1.44.8 3.432 1.8 6.93 1.878 10.484.384.29-.122.58-.244.875-.354.49-.184.955-.188 1.228.336.276.528.084.952-.386 1.286-1.815 1.29-3.726 2.282-5.804 2.004m-11.335-55.15c-.187 1.67-.895 2.897-2.032 3.797-3.092 2.444-6.56 2.996-10.238 1.596-1.846-.702-2.975-2.15-3.404-4.317.766.528 1.37.97 2.003 1.372.753.478 1.513.95 2.3 1.37 1.854.993 3.767 1.024 5.58-.013 1.685-.962 3.27-2.094 4.897-3.155.26-.17.502-.364.894-.65m6.654 66.462c2.126.125 4.25.302 6.377.35.795.017 1.6-.252 2.394-.42.55-.114 1.057-.17 1.37.427.31.596.215 1.16-.315 1.543-.413.3-.906.544-1.4.66-1.71.405-3.443.293-5.17.076a46 46 0 0 1-2.873-.457c-.326-.063-.636-.25-.933-.415-.47-.26-.935-.554-.793-1.21.113-.513.51-.69 1.344-.556m5.409-83.726c-.06.25-.056.675-.26.932-.174.217-.636.393-.887.318-.32-.098-.737-.428-.802-.726-.48-2.194-1.126-4.375-.88-6.665.033-.31.047-.695.233-.895.273-.29.695-.608 1.048-.6.274.004.7.452.77.767.148.655.07 1.356.147 2.03.153 1.344.348 2.684.526 4.025.032.232.06.464.107.814M145.3 89.278c-.16.516-.324 1.234-.61 1.897-.31.716-.984.944-1.717.698-.718-.24-.67-.83-.548-1.37.31-1.393.014-2.7-.45-4.002-.128-.36-.22-.76-.214-1.142.01-.603.718-.992 1.114-.582 1.167 1.208 2.267 2.488 2.427 4.502m5.955-22.999c-.01 1.076-.557 1.774-1.384 1.77-.817-.003-1.685-.964-1.694-1.872-.01-1.193.65-1.95 1.68-1.924 1.002.027 1.412.62 1.397 2.025m-34.769-.402c.007.778-.438 1.24-1.2 1.245-.984.007-1.662-.724-1.67-1.8-.004-.918.533-1.523 1.34-1.507.856.017 1.52.91 1.53 2.062" fill="#000"/><path d="M167.377 137.702c-1.52-.207-2.966-.993-4.423-1.575-.802-.32-1.518-.426-2.127.306-1.886 2.27-4.484 3.892-6.29 6.127-4.754 5.886-10.35 10.04-18.108 10.744-.443.04-1.274-.093-1.14.52.502 2.31-1.235 2.848-2.684 3.58-1.497.76-1.458 2.082-1.133 3.292.446 1.662 1.588.4 2.387.286 3.082-.436 5.344 1.342 5.595 4.49.265 3.313-1.616 5.995-4.51 5.357-3.647-.805-3.296 1.076-3.197 3.31.056 1.27.073 2.55-.004 3.818-.112 1.834-.118 2.834 2.523 2.683 2.11-.12 5.408-.427 5.76 3.393.212 2.31-1.223 4.705-3.49 5.543-1.914.708-3.503-.305-5.26-1.182v3.823c.146 2.878 1.585 3.742 4.492 3.652 7.448-.232 14.91-.16 22.364-.058 3.032.042 4.272-1.4 4.402-4.194.635-2.848 1.912-5.725 1.79-8.542-.405-9.186 1.286-18.084 3.06-26.976.816-4.084 1.66-8.236 4.048-11.835.854-1.287 1.377-1.293 1.78.233.367.363.735.344 1.103.002-.336-4.275-2.843-6.24-6.94-6.798" fill="#585857"/><path d="M102.897 188.682c-1.116-1.67-.242-3.664-.898-5.442-.372-1.006-.695-1.796-1.705-.83-2.276 2.182-5.368 3.268-7.46 5.666l-1.16.608c-1.502-.102-1.843-1.07-1.768-2.352 1.78-1.177 3.55-2.365 5.34-3.524.42-.27.937-.523.787-1.062-.076-.273-.56-.503-.903-.62-3.228-1.102-6.236.205-7.578 3.222-.312.7-.764 1.34-1.15 2.007-.643.284-.483 1.08-.862 1.447-2.13 2.062-.29 4.03.548 5.526.778 1.386 1.326-1.18 2.407-1.06.19.02.39-.044.585-.044 3.14.003 6.28 0 9.42.023.802.005 1.684.085 1.774 1.108.076.868-.665 1.075-1.366 1.226-.438.095-1.026.05-.886 1.017 2.017-.242 3.972.98 6.054.15.25-2.46-.283-4.793-1.18-7.065" fill="#505150"/><path d="M190.857 189.577c-.85-1.913-.917-4.246-2.845-5.616-.04-1.608-.784-2.927-1.73-4.162-.002 0-.002-.002-.003-.002-1.41-4.14-3.38-8.06-4.273-12.41-1.623-7.926-4.33-15.524-7.69-22.886-.367 0-.735 0-1.102-.002-1.398 3.962-2.432 8.002-3.225 12.14-1.416 7.383-2.29 14.833-3.224 22.28-.282 2.248.666 4.406 1.87 5.804.726.842 2.88-1.005 4.23-1.938.593-.41 1.538-.504 1.715-1.865-1.377 0-2.697-.015-4.018.004-1.07.015-2.028-.287-2.394-1.34-.363-1.04.558-1.59 1.224-2.127 1.986-1.598 4.59-2.458 5.623-5.514 1.68 3.38-1.652 4.218-2.212 6.19.988.764 2.008.44 2.932.42 2.155-.05 3.173.785 2.724 3.01-2.372 2.518-5.238 4.525-8.43 5.552-2.332.75-2.946 1.82-2.76 3.903-1.087 3.26-.67 5.172 1.352 5.187 3.75.028 7.504-.286 11.254-.503 1.235-.072 1.597-.944 1.607-2.048.015-1.774.126-3.214 2.343-1.31.993.852 1.37-.35 1.584-.994.652-1.947 1.486-1.89 2.545-.35.46.672.882 1.42 1.837.794.778-.51 1.456-1.338 1.065-2.217" fill="#585857"/><path d="M132.954 165.99c-.086-1.227.128-2.16 1.68-2.052 1.47.102 2.023.95 2.02 2.303-.005 1.366-.833 1.865-2.063 1.887-1.512.026-1.692-.99-1.636-2.136m2.105 17.368c.832.205 2.08.128 2.046 1.458-.03 1.18-.862 1.975-2.08 1.978-1.074.003-1.414-.848-1.475-1.8-.065-1.012.233-1.723 1.51-1.636" fill="#595A59"/><path d="M123.472 150.82c-3.082-2.367-6.772-4.13-7.43-8.987-.326-2.408-2.942-4.512-4.54-6.742-.644-.9-1.337-.414-2.06-.05a1153.824 1153.824 0 0 1-10.804 5.364c-.778.38-1.78 1.03-2.462.337-.916-.93.775-1.345.793-2.187-2.148.313-1.92 3.34-4.126 3.588.938.196 2.846-.658 1.912 1.624-.96 2.35-.747 4.788-.763 7.218-.182.545-.512 1.087-.524 1.636-.17 7.874-2.005 15.48-3.69 23.11-.16.712-.828 1.41.162 2.46 2.227-1.592 4.506-3.216 6.778-4.848.735-.53 1.445-1.806 2.39-.67.73.873-.144 1.75-.75 2.567-.827 1.113-2.538 1.45-2.93 3.218 1.368.093 2.585-.018 3.682.29 2.085.587 2.096-.27 1.727-1.898-.583-2.568-1.01-5.173-1.457-7.77-1.104-6.437-1.93-12.924-3.516-19.273-.09-1.267-.108-2.546-.297-3.798-.15-.98-.595-2.212.632-2.5 1.338-.313 1.324 1.167 1.606 2.02 2.558 7.716 3.69 15.74 5.116 23.705 1.304 7.282 2.744 14.54 4.124 21.807-.142 1.104.403 2.097.518 3.14.162 1.468.333 1.9 2.226 1.91 5.823.02 11.648-.872 17.478-.03 1.782.256 1.6-.917 1.046-2.067l-.013-.59c0-3.536 0-7.07.002-10.606.492-2.812.61-5.647.527-8.495-.15-5.094-.244-10.19-.468-15.28-.08-1.818.728-2.947 2.144-3.873.697-.456 1.752-.436 2.078-1.464-2.99-1.236-6.55-.892-9.114-2.862zm-28.77-4.588a.209.209 0 0 0-.098.04c-.27.186-.01-.218.12-.13-.01.03-.015.06-.023.09z" fill="#585857"/></g></svg>